/* XPM */
static char*ScubaLog[]={
"16 16 19 1",
"n c #808080",
"d c #d6d6d6",
"e c #c3c3c3",
"f c #c0c0c0",
"a c #000000",
"o c #2c2c0c",
"h c #c2c262",
"k c #e0e000",
"l c #ffff00",
"# c #303030",
"c c #acacac",
"g c #e0e0c0",
"i c #ffffc0",
"m c #404040",
"j c #a0a000",
". c None",
"q c #cccccc",
"p c #606000",
"b c #ffffff",
"................",
".#aaaaaaaaaaaa#.",
".abbbbbbbbbbbba.",
".accdefccccccca.",
".abbghibbbbbbba.",
".acdjkldcccccca.",
".abbjklbbbbbbba.",
".acdjkldcccccca.",
".abbjklbbbbbbba.",
".abbjklbbmnnnna.",
".abbjklbbnbbbba.",
".abbjklbbnbbbba.",
".abbopobbnbbbba.",
".abbqnqbbnnnnna.",
".#aaaaaaaaaaaa#.",
"................"};
