/* XPM */
static char*ScubaLog[]={
"32 32 9 1",
"c c #c3c3c3",
"g c #c0c000",
"e c #808000",
"a c #000000",
"f c #ffff00",
"# c #303030",
". c None",
"d c #585858",
"b c #ffffff",
"................................",
".#aaaaaaaaaaaaaaaaaaaaaaaaaaaa#.",
".abbbbbbbbbbbbbbbbbbbbbbbbbbbba.",
".abbbbbbbbbbbbbbbbbbbbbbbbbbbba.",
".abbbbbbbbbbbbbbbbbbbbbbbbbbbba.",
".abbbbbbbbbbbbbbbbbbbbbbbbbbbba.",
".abbbbbbbbccbbbbbbbbbbbbbbbbbba.",
".abddddddbccabdddddddddddddddba.",
".abbbbbbbbccbbbbbbbbbbbbbbbbbba.",
".abbbbbbbeeffbbbbbbbbbbbbbbbbba.",
".abbbbbbeggfffbbbbbbbbbbbbbbbba.",
".abddddbeggfffbddddddddddddddba.",
".abbbbbbeggfffbbbbbbbbbbbbbbbba.",
".abbbbbbeggfffbbbbbbbbbbbbbbbba.",
".abbbbbbeggfffbbbbbbbbbbbbbbbba.",
".abddddbeggfffbddddddddddddddba.",
".abbbbbbeggfffbbbbbbbbbbbbbbbba.",
".abbbbbbeggfffbbbbbbbbbbbbbbbba.",
".abbbbbbeggfffbbbbaaaaaaaaaaaba.",
".abbbbbbeggfffbbbbabbbbbbbbbaba.",
".abbbbbbeggfffbbbbabbbbbbbbbaba.",
".abbbbbbeggfffbbbbabbbbbbbbbaba.",
".abbbbbbeggfffbbbbabbbbbbbbbaba.",
".abbbbbbeggfffbbbbabbbbbbbbbaba.",
".abbbbbbaeggeabbbbabbbbbbbbbaba.",
".abbbbbb#aaaa#bbbbabbbbbbbbbaba.",
".abbbbbbb#aa#bbbbbaaaaaaaaaaaba.",
".abbbbbbbbbbbbbbbbbbbbbbbbbbbba.",
".abbbbbbbbbbbbbbdddddddddddddba.",
".abbbbbbbbbbbbbbbbbbbbbbbbbbbba.",
".#aaaaaaaaaaaaaaaaaaaaaaaaaaaa#.",
"................................"};
